# xmcd
#
# Track frame offsets:
#	150
#	15369
#	26750
#	40738
#	53452
#	112896
#	126628
#	139597
#	151699
#	163389
#
# Disc length: 2310
#
# Revision: 1
# Processed by: cddbd v1.5.1PL0 Copyright (c) Steve Scherf et al.
# Submitted via: audiograbber 1.81.02
# Normalized: r0:TDELIM( - )
#
DISCID=7609040a
DTITLE=Various Artist - Blues Legends, Vol. 2 [CD1)
DYEAR=1900
DGENRE=Blues
TTITLE0=Billy Boy Arnold - Don't Stay Out All Night
TTITLE1=Big Joe Williams - By Bye Baby Blues
TTITLE2=Memphis Slim - Messin' Around
TTITLE3=Jimmy Reed - Shame Shame Shame
TTITLE4=Big Joe Turner - I've Got A Pocket Full Of Pencils
TTITLE5=Lightnin' Slim - Good Morning Heartaches
TTITLE6=Etta James - Dance With Me Henry
TTITLE7=Lightnin' Slim - Rooster's Blues
TTITLE8=Lightnin' Hopkins - Talk of the Town
TTITLE9=John Lee Hooker - I'm Leaving Baby
EXTD=
EXTT0=
EXTT1=
EXTT2=
EXTT3=
EXTT4=
EXTT5=
EXTT6=
EXTT7=
EXTT8=
EXTT9=
PLAYORDER=
